<svg width="98" height="29" viewBox="0 0 98 29" fill="none" xmlns="http://www.w3.org/2000/svg">
<path d="M16.6278 14.2727C16.6278 16.0909 16.304 17.6733 15.6562 19.0199C15.0085 20.3608 14.1165 21.4006 12.9801 22.1392C11.8494 22.8722 10.5483 23.2386 9.0767 23.2386C7.60511 23.2386 6.30114 22.8722 5.16477 22.1392C4.03409 21.4006 3.14489 20.3608 2.49716 19.0199C1.85511 17.6733 1.53409 16.0909 1.53409 14.2727C1.53409 12.4545 1.85511 10.875 2.49716 9.53409C3.14489 8.1875 4.03693 7.14773 5.1733 6.41477C6.30966 5.67614 7.6108 5.30682 9.0767 5.30682C10.5483 5.30682 11.8494 5.67614 12.9801 6.41477C14.1165 7.14773 15.0085 8.1875 15.6562 9.53409C16.304 10.875 16.6278 12.4545 16.6278 14.2727ZM15.0767 14.2727C15.0767 12.7102 14.8153 11.3722 14.2926 10.2585C13.7699 9.1392 13.0568 8.28409 12.1534 7.69318C11.25 7.10227 10.2244 6.80682 9.0767 6.80682C7.93466 6.80682 6.91193 7.10227 6.00852 7.69318C5.10511 8.28409 4.3892 9.13636 3.8608 10.25C3.33807 11.3636 3.0767 12.7045 3.0767 14.2727C3.0767 15.8352 3.33807 17.1733 3.8608 18.2869C4.38352 19.4006 5.09659 20.2557 6 20.8523C6.90341 21.4432 7.92898 21.7386 9.0767 21.7386C10.2244 21.7386 11.25 21.4432 12.1534 20.8523C13.0625 20.2614 13.7784 19.4091 14.3011 18.2955C14.8239 17.1761 15.0824 15.8352 15.0767 14.2727ZM34.076 5.54545V23H32.5249L22.2124 8.38352H22.076V23H20.4822V5.54545H22.0249L32.3714 20.179H32.5078V5.54545H34.076ZM38.7166 23V5.54545H40.3104V21.5682H48.6286V23H38.7166ZM49.7599 5.54545H51.6009L56.7741 13.8295H56.9276L62.1009 5.54545H63.9418L57.6435 15.4403V23H56.0582V15.4403L49.7599 5.54545Z" fill="white"/>
<path d="M75.9858 10.5653C75.9176 9.87784 75.625 9.34375 75.108 8.96307C74.5909 8.58239 73.8892 8.39204 73.0028 8.39204C72.4006 8.39204 71.892 8.47727 71.4773 8.64773C71.0625 8.8125 70.7443 9.04261 70.5227 9.33807C70.3068 9.63352 70.1989 9.96875 70.1989 10.3438C70.1875 10.6562 70.2528 10.929 70.3949 11.1619C70.5426 11.3949 70.7443 11.5966 71 11.767C71.2557 11.9318 71.5511 12.0767 71.8864 12.2017C72.2216 12.321 72.5795 12.4233 72.9602 12.5085L74.5284 12.8835C75.2898 13.054 75.9886 13.2812 76.625 13.5653C77.2614 13.8494 77.8125 14.1989 78.2784 14.6136C78.7443 15.0284 79.1051 15.517 79.3608 16.0795C79.6222 16.642 79.7557 17.2869 79.7614 18.0142C79.7557 19.0824 79.483 20.0085 78.9432 20.7926C78.4091 21.571 77.6364 22.1761 76.625 22.608C75.6193 23.0341 74.4063 23.2472 72.9858 23.2472C71.5767 23.2472 70.3494 23.0312 69.304 22.5994C68.2642 22.1676 67.4517 21.5284 66.8665 20.6818C66.2869 19.8295 65.983 18.7756 65.9545 17.5199H69.5256C69.5653 18.1051 69.733 18.5937 70.0284 18.9858C70.3295 19.3722 70.7301 19.6648 71.2301 19.8636C71.7358 20.0568 72.3068 20.1534 72.9432 20.1534C73.5682 20.1534 74.1108 20.0625 74.571 19.8807C75.0369 19.6989 75.3977 19.446 75.6534 19.1222C75.9091 18.7983 76.0369 18.4261 76.0369 18.0057C76.0369 17.6136 75.9205 17.2841 75.6875 17.017C75.4602 16.75 75.125 16.5227 74.6818 16.3352C74.2443 16.1477 73.7074 15.9773 73.071 15.8239L71.1705 15.3466C69.6989 14.9886 68.5369 14.429 67.6847 13.6676C66.8324 12.9062 66.4091 11.8807 66.4148 10.5909C66.4091 9.53409 66.6903 8.6108 67.2585 7.82102C67.8324 7.03125 68.6193 6.41477 69.6193 5.97159C70.6193 5.52841 71.7557 5.30682 73.0284 5.30682C74.3239 5.30682 75.4545 5.52841 76.4205 5.97159C77.392 6.41477 78.1477 7.03125 78.6875 7.82102C79.2273 8.6108 79.5057 9.52557 79.5227 10.5653H75.9858ZM85.7038 5.54545L89.2237 11.4943H89.3601L92.897 5.54545H97.0646L91.7379 14.2727L97.1839 23H92.9396L89.3601 17.0426H89.2237L85.6442 23H81.4169L86.88 14.2727L81.5192 5.54545H85.7038Z" fill="#FF50A4"/>
</svg>
